<?xml version="1.0" encoding="utf-8"?>
<!-- created with bpmn-js / http://bpmn.io -->
<!DOCTYPE svg PUBLIC "-//W3C//DTD SVG 1.1//EN" "http://www.w3.org/Graphics/SVG/1.1/DTD/svg11.dtd">
<svg xmlns="http://www.w3.org/2000/svg" xmlns:xlink="http://www.w3.org/1999/xlink" width="1022" height="634" viewBox="3737 -553 1022 634" version="1.1"><defs><marker viewBox="0 0 20 20" markerWidth="10" markerHeight="10" orient="auto" refX="11" refY="10" id="markerSivj6s1sb9"><path d="M 1 5 L 11 10 L 1 15 Z" style="stroke-width: 1; stroke-linecap: round; stroke-dasharray: 10000, 1;" fill="#000000"/></marker><marker viewBox="0 0 20 20" markerWidth="20" markerHeight="20" orient="auto" refX="6" refY="6" id="markerSivj6s1sbb"><circle cx="6" cy="6" r="3.5" style="stroke-width: 1; stroke-linecap: round; stroke-dasharray: 10000, 1;" fill="#ffffff" stroke="#000000"/></marker><marker viewBox="0 0 20 20" markerWidth="20" markerHeight="20" orient="auto" refX="8.5" refY="5" id="markerSivj6s1sbd"><path d="m 1 5 l 0 -3 l 7 3 l -7 3 z" fill="#ffffff" stroke="#000000" style="stroke-width: 1; stroke-linecap: butt; stroke-dasharray: 10000, 1;"/></marker><marker viewBox="0 0 20 20" markerWidth="10" markerHeight="10" orient="auto" refX="1" refY="10" id="markerSivj6s1sbf"><path d="M 11 5 L 1 10 L 11 15" fill="none" stroke="#000000" style="stroke-width: 1.5; stroke-linecap: round; stroke-dasharray: 10000, 1;"/></marker><marker viewBox="0 0 20 20" markerWidth="10" markerHeight="10" orient="auto" refX="12" refY="10" id="markerSivj6s1sbh"><path d="M 1 5 L 11 10 L 1 15" fill="none" stroke="#000000" style="stroke-width: 1.5; stroke-linecap: round; stroke-dasharray: 10000, 1;"/></marker><marker viewBox="0 0 20 20" markerWidth="10" markerHeight="10" orient="auto" refX="-1" refY="10" id="markerSivj6s1sbj"><path d="M 0 10 L 8 6 L 16 10 L 8 14 Z" fill="#ffffff" stroke="#000000" style="stroke-width: 1; stroke-linecap: round; stroke-dasharray: 10000, 1;"/></marker><marker viewBox="0 0 20 20" markerWidth="10" markerHeight="10" orient="auto" refX="-5" refY="10" id="markerSivj6s1sbl"><path d="M 1 4 L 5 16" fill="#000000" stroke="#000000" style="stroke-width: 1; stroke-linecap: round; stroke-dasharray: 10000, 1;"/></marker></defs><g class="djs-group" xmlns="http://www.w3.org/2000/svg"><g data-element-id="Participant_0tgohuh" class="djs-element djs-shape" transform="matrix(1,0,0,1,3743,-547)" style="display: block;"><g class="djs-visual"><rect x="0" y="0" width="1010" height="622" rx="0" ry="0" stroke="#000000" style="stroke-width: 2; fill-opacity: 0.95;" fill="#ffffff"></rect><polyline points="30,0 30,622 " fill="none" stroke="#000000" style="stroke-width: 2;"></polyline><text class=" djs-label" transform="matrix(0,-1,1,0,0,622)" style="font-family: Arial, sans-serif; font-size: 12px;"><tspan x="273.109375" y="18.5">Web Interface</tspan></text></g><rect x="0" y="0" width="1010" height="622" fill="none" stroke="#ffffff" style="stroke-opacity: 0; stroke-width: 15;" class="djs-hit"></rect><rect x="-6" y="-6" width="1022" height="634" fill="none" class="djs-outline"></rect></g><g class="djs-children"><g class="djs-group"><g data-element-id="Lane_0yh5lvy" class="djs-element djs-shape hover" transform="matrix(1,0,0,1,3773,-547)" style="display: block;"><g class="djs-visual"><rect x="0" y="0" width="980" height="622" rx="0" ry="0" stroke="#000000" fill="none" style="stroke-width: 2;"></rect><text class=" djs-label" transform="matrix(0,-1,1,0,0,622)" style="font-family: Arial, sans-serif; font-size: 12px;"><tspan x="311" y="15"></tspan></text></g><rect x="0" y="0" width="980" height="622" fill="none" stroke="#ffffff" style="stroke-opacity: 0; stroke-width: 15;" class="djs-hit"></rect><rect x="-6" y="-6" width="992" height="634" fill="none" class="djs-outline"></rect></g></g><g class="djs-group"><g data-element-id="StartEvent_1yqolp9" transform="matrix(1,0,0,1,3779,-200)" class="djs-element djs-shape" style="display: block;"><g class="djs-visual"><circle cx="18" cy="18" r="18" stroke="#000000" fill="#ffffff" style="stroke-width: 2;"></circle></g><rect x="0" y="0" width="36" height="36" fill="none" stroke="#ffffff" style="stroke-opacity: 0; stroke-width: 15;" class="djs-hit"></rect><rect x="-6" y="-6" width="48" height="48" fill="none" class="djs-outline"></rect></g></g><g class="djs-group"><g data-element-id="StartEvent_1yqolp9_label" class="djs-element djs-shape" transform="matrix(1,0,0,1,3772,-164)" style="display: block;"><g class="djs-visual"><text class=" djs-label" transform="matrix(1,0,0,1,-20.5,0)" style="font-family: Arial, sans-serif; font-size: 11px;"><tspan x="20.5" y="12">User login</tspan></text></g><rect x="0" y="0" width="49" height="12" fill="none" stroke="#ffffff" style="stroke-opacity: 0; stroke-width: 15;" class="djs-hit"></rect><rect x="-6" y="-6" width="61" height="24" fill="none" class="djs-outline"></rect></g></g><g class="djs-group"><g data-element-id="ExclusiveGateway_1ddcqcm" transform="matrix(1,0,0,1,3880,-207)" class="djs-element djs-shape" style="display: block;"><g class="djs-visual"><polygon points="25,0,50,25,25,50,0,25" stroke="#000000" fill="#ffffff" style="stroke-width: 2;"></polygon><path d="m 16,15 7.42857142857143,9.714285714285715 -7.42857142857143,9.714285714285715 3.428571428571429,0 5.714285714285715,-7.464228571428572 5.714285714285715,7.464228571428572 3.428571428571429,0 -7.42857142857143,-9.714285714285715 7.42857142857143,-9.714285714285715 -3.428571428571429,0 -5.714285714285715,7.464228571428572 -5.714285714285715,-7.464228571428572 -3.428571428571429,0 z" fill="#000000" stroke="#000000" style="stroke-width: 1;"></path></g><rect x="0" y="0" width="50" height="50" fill="none" stroke="#ffffff" style="stroke-opacity: 0; stroke-width: 15;" class="djs-hit"></rect><rect x="-6" y="-6" width="62" height="62" fill="none" class="djs-outline"></rect></g></g><g class="djs-group"><g data-element-id="ExclusiveGateway_1ddcqcm_label" class="djs-element djs-shape" transform="matrix(1,0,0,1,3905,-157)" style="display: none;"><g class="djs-visual"><text class=" djs-label" transform="matrix(1,0,0,1,0,0)" style="font-family: Arial, sans-serif; font-size: 11px;"><tspan x="45" y="0"></tspan></text></g><rect x="0" y="0" width="0" height="0" fill="none" stroke="#ffffff" style="stroke-opacity: 0; stroke-width: 15;" class="djs-hit"></rect><rect x="-6" y="-6" width="12" height="12" fill="none" class="djs-outline"></rect></g></g><g class="djs-group"><g data-element-id="Task_0rfa99q" class="djs-element djs-shape" transform="matrix(1,0,0,1,3986,-91)" style="display: block;"><g class="djs-visual"><rect x="0" y="0" width="100" height="80" rx="10" ry="10" stroke="#000000" fill="#ffffff" style="stroke-width: 2;"></rect><text class=" djs-label" style="font-family: Arial, sans-serif; font-size: 12px;"><tspan x="28.5" y="36.5">Attempt </tspan><tspan x="19.5" y="50.5">registration </tspan></text></g><rect x="0" y="0" width="100" height="80" fill="none" stroke="#ffffff" style="stroke-opacity: 0; stroke-width: 15;" class="djs-hit"></rect><rect x="-6" y="-6" width="112" height="92" fill="none" class="djs-outline"></rect></g></g><g class="djs-group"><g data-element-id="Task_0ftfbg0" class="djs-element djs-shape" transform="matrix(1,0,0,1,3986,-442)" style="display: block;"><g class="djs-visual"><rect x="0" y="0" width="100" height="80" rx="10" ry="10" stroke="#000000" fill="#ffffff" style="stroke-width: 2;"></rect><text class=" djs-label" style="font-family: Arial, sans-serif; font-size: 12px;"><tspan x="14" y="43.5">Attempt login</tspan></text></g><rect x="0" y="0" width="100" height="80" fill="none" stroke="#ffffff" style="stroke-opacity: 0; stroke-width: 15;" class="djs-hit"></rect><rect x="-6" y="-6" width="112" height="92" fill="none" class="djs-outline"></rect></g></g><g class="djs-group"><g data-element-id="EndEvent_1w40h10" transform="matrix(1,0,0,1,4543,-489)" class="djs-element djs-shape" style="display: block;"><g class="djs-visual"><circle cx="18" cy="18" r="18" stroke="#000000" fill="#ffffff" style="stroke-width: 4;"></circle></g><rect x="0" y="0" width="36" height="36" fill="none" stroke="#ffffff" style="stroke-opacity: 0; stroke-width: 15;" class="djs-hit"></rect><rect x="-6" y="-6" width="48" height="48" fill="none" class="djs-outline"></rect></g></g><g class="djs-group"><g data-element-id="EndEvent_1w40h10_label" class="djs-element djs-shape" transform="matrix(1,0,0,1,4535,-453)" style="display: block;"><g class="djs-visual"><text class=" djs-label" transform="matrix(1,0,0,1,-18,0)" style="font-family: Arial, sans-serif; font-size: 11px;"><tspan x="18" y="12">Finish login</tspan></text></g><rect x="0" y="0" width="54" height="12" fill="none" stroke="#ffffff" style="stroke-opacity: 0; stroke-width: 15;" class="djs-hit"></rect><rect x="-6" y="-6" width="66" height="24" fill="none" class="djs-outline"></rect></g></g><g class="djs-group"><g data-element-id="ExclusiveGateway_1rkpji5" transform="matrix(1,0,0,1,4076,-242)" class="djs-element djs-shape" style="display: block;"><g class="djs-visual"><polygon points="25,0,50,25,25,50,0,25" stroke="#000000" fill="#ffffff" style="stroke-width: 2;"></polygon><path d="m 16,15 7.42857142857143,9.714285714285715 -7.42857142857143,9.714285714285715 3.428571428571429,0 5.714285714285715,-7.464228571428572 5.714285714285715,7.464228571428572 3.428571428571429,0 -7.42857142857143,-9.714285714285715 7.42857142857143,-9.714285714285715 -3.428571428571429,0 -5.714285714285715,7.464228571428572 -5.714285714285715,-7.464228571428572 -3.428571428571429,0 z" fill="#000000" stroke="#000000" style="stroke-width: 1;"></path></g><rect x="0" y="0" width="50" height="50" fill="none" stroke="#ffffff" style="stroke-opacity: 0; stroke-width: 15;" class="djs-hit"></rect><rect x="-6" y="-6" width="62" height="62" fill="none" class="djs-outline"></rect></g></g><g class="djs-group"><g data-element-id="ExclusiveGateway_1rkpji5_label" class="djs-element djs-shape" transform="matrix(1,0,0,1,4102,-192)" style="display: none;"><g class="djs-visual"><text class=" djs-label" transform="matrix(1,0,0,1,0,0)" style="font-family: Arial, sans-serif; font-size: 11px;"><tspan x="45" y="0"></tspan></text></g><rect x="0" y="0" width="0" height="0" fill="none" stroke="#ffffff" style="stroke-opacity: 0; stroke-width: 15;" class="djs-hit"></rect><rect x="-6" y="-6" width="12" height="12" fill="none" class="djs-outline"></rect></g></g><g class="djs-group"><g data-element-id="Task_1hing73" class="djs-element djs-shape" transform="matrix(1,0,0,1,4199,-257)" style="display: block;"><g class="djs-visual"><rect x="0" y="0" width="100" height="80" rx="10" ry="10" stroke="#000000" fill="#ffffff" style="stroke-width: 2;"></rect><text class=" djs-label" style="font-family: Arial, sans-serif; font-size: 12px;"><tspan x="23" y="36.5">Password </tspan><tspan x="26.5" y="50.5">recovery </tspan></text></g><rect x="0" y="0" width="100" height="80" fill="none" stroke="#ffffff" style="stroke-opacity: 0; stroke-width: 15;" class="djs-hit"></rect><rect x="-6" y="-6" width="112" height="92" fill="none" class="djs-outline"></rect></g></g><g class="djs-group"><g data-element-id="ExclusiveGateway_1ne847t" transform="matrix(1,0,0,1,4224,-427)" class="djs-element djs-shape" style="display: block;"><g class="djs-visual"><polygon points="25,0,50,25,25,50,0,25" stroke="#000000" fill="#ffffff" style="stroke-width: 2;"></polygon><path d="m 16,15 7.42857142857143,9.714285714285715 -7.42857142857143,9.714285714285715 3.428571428571429,0 5.714285714285715,-7.464228571428572 5.714285714285715,7.464228571428572 3.428571428571429,0 -7.42857142857143,-9.714285714285715 7.42857142857143,-9.714285714285715 -3.428571428571429,0 -5.714285714285715,7.464228571428572 -5.714285714285715,-7.464228571428572 -3.428571428571429,0 z" fill="#000000" stroke="#000000" style="stroke-width: 1;"></path></g><rect x="0" y="0" width="50" height="50" fill="none" stroke="#ffffff" style="stroke-opacity: 0; stroke-width: 15;" class="djs-hit"></rect><rect x="-6" y="-6" width="62" height="62" fill="none" class="djs-outline"></rect></g></g><g class="djs-group"><g data-element-id="ExclusiveGateway_1ne847t_label" class="djs-element djs-shape" transform="matrix(1,0,0,1,4249,-377)" style="display: none;"><g class="djs-visual"><text class=" djs-label" transform="matrix(1,0,0,1,0,0)" style="font-family: Arial, sans-serif; font-size: 11px;"><tspan x="45" y="0"></tspan></text></g><rect x="0" y="0" width="0" height="0" fill="none" stroke="#ffffff" style="stroke-opacity: 0; stroke-width: 15;" class="djs-hit"></rect><rect x="-6" y="-6" width="12" height="12" fill="none" class="djs-outline"></rect></g></g><g class="djs-group"><g data-element-id="Task_0nzrd9o" class="djs-element djs-shape" transform="matrix(1,0,0,1,4330,-511)" style="display: block;"><g class="djs-visual"><rect x="0" y="0" width="100" height="80" rx="10" ry="10" stroke="#000000" fill="#ffffff" style="stroke-width: 2;"></rect><text class=" djs-label" style="font-family: Arial, sans-serif; font-size: 12px;"><tspan x="13.5" y="36.5">Initialize user </tspan><tspan x="30" y="50.5">context </tspan></text></g><rect x="0" y="0" width="100" height="80" fill="none" stroke="#ffffff" style="stroke-opacity: 0; stroke-width: 15;" class="djs-hit"></rect><rect x="-6" y="-6" width="112" height="92" fill="none" class="djs-outline"></rect></g></g><g class="djs-group"><g data-element-id="ExclusiveGateway_0o832tq" transform="matrix(1,0,0,1,4166,-2)" class="djs-element djs-shape" style="display: block;"><g class="djs-visual"><polygon points="25,0,50,25,25,50,0,25" stroke="#000000" fill="#ffffff" style="stroke-width: 2;"></polygon><path d="m 16,15 7.42857142857143,9.714285714285715 -7.42857142857143,9.714285714285715 3.428571428571429,0 5.714285714285715,-7.464228571428572 5.714285714285715,7.464228571428572 3.428571428571429,0 -7.42857142857143,-9.714285714285715 7.42857142857143,-9.714285714285715 -3.428571428571429,0 -5.714285714285715,7.464228571428572 -5.714285714285715,-7.464228571428572 -3.428571428571429,0 z" fill="#000000" stroke="#000000" style="stroke-width: 1;"></path></g><rect x="0" y="0" width="50" height="50" fill="none" stroke="#ffffff" style="stroke-opacity: 0; stroke-width: 15;" class="djs-hit"></rect><rect x="-6" y="-6" width="62" height="62" fill="none" class="djs-outline"></rect></g></g><g class="djs-group"><g data-element-id="ExclusiveGateway_0o832tq_label" class="djs-element djs-shape" transform="matrix(1,0,0,1,4192,48)" style="display: none;"><g class="djs-visual"><text class=" djs-label" transform="matrix(1,0,0,1,0,0)" style="font-family: Arial, sans-serif; font-size: 11px;"><tspan x="45" y="0"></tspan></text></g><rect x="0" y="0" width="0" height="0" fill="none" stroke="#ffffff" style="stroke-opacity: 0; stroke-width: 15;" class="djs-hit"></rect><rect x="-6" y="-6" width="12" height="12" fill="none" class="djs-outline"></rect></g></g><g class="djs-group"><g data-element-id="SequenceFlow_1ijqrbk" class="djs-element djs-connection" style="display: block;"><g class="djs-visual"><path d="m  4249,-427L4249,-471 L4330,-471 " fill="none" stroke="#000000" style="stroke-width: 2; stroke-linejoin: round; marker-end: url(&quot;#markerSivj6s1sb9&quot;);"></path></g><polyline points="4249,-427 4249,-471 4330,-471 " fill="none" stroke="#ffffff" style="stroke-opacity: 0; stroke-width: 15;" class="djs-hit"></polyline><rect x="4243" y="-477" width="93" height="56" fill="none" class="djs-outline"></rect></g></g><g class="djs-group"><g data-element-id="SequenceFlow_1ijqrbk_label" class="djs-element djs-shape" transform="matrix(1,0,0,1,4240,-443)" style="display: block;"><g class="djs-visual"><text class=" djs-label" transform="matrix(1,0,0,1,-21,0)" style="font-family: Arial, sans-serif; font-size: 11px;"><tspan x="21" y="12">succesful</tspan></text></g><rect x="0" y="0" width="48" height="12" fill="none" stroke="#ffffff" style="stroke-opacity: 0; stroke-width: 15;" class="djs-hit"></rect><rect x="-6" y="-6" width="60" height="24" fill="none" class="djs-outline"></rect></g></g><g class="djs-group"><g data-element-id="SequenceFlow_0d0647w" class="djs-element djs-connection" style="display: block;"><g class="djs-visual"><path d="m  4249,-377L4249,-317 L4249,-317 L4249,-257 " fill="none" stroke="#000000" style="stroke-width: 2; stroke-linejoin: round; marker-end: url(&quot;#markerSivj6s1sb9&quot;);"></path></g><polyline points="4249,-377 4249,-317 4249,-317 4249,-257 " fill="none" stroke="#ffffff" style="stroke-opacity: 0; stroke-width: 15;" class="djs-hit"></polyline><rect x="4243" y="-383" width="12" height="132" fill="none" class="djs-outline"></rect></g></g><g class="djs-group"><g data-element-id="SequenceFlow_0d0647w_label" class="djs-element djs-shape" transform="matrix(1,0,0,1,4236,-288)" style="display: block;"><g class="djs-visual"><text class=" djs-label" transform="matrix(1,0,0,1,-31,0)" style="font-family: Arial, sans-serif; font-size: 11px;"><tspan x="32" y="12">failed</tspan></text></g><rect x="0" y="0" width="26" height="12" fill="none" stroke="#ffffff" style="stroke-opacity: 0; stroke-width: 15;" class="djs-hit"></rect><rect x="-6" y="-6" width="38" height="24" fill="none" class="djs-outline"></rect></g></g><g class="djs-group"><g data-element-id="SequenceFlow_1ho7hi3" class="djs-element djs-connection" style="display: block;"><g class="djs-visual"><path d="m  3815,-182L3880,-182 " fill="none" stroke="#000000" style="stroke-width: 2; stroke-linejoin: round; marker-end: url(&quot;#markerSivj6s1sb9&quot;);"></path></g><polyline points="3815,-182 3880,-182 " fill="none" stroke="#ffffff" style="stroke-opacity: 0; stroke-width: 15;" class="djs-hit"></polyline><rect x="3809" y="-188" width="77" height="12" fill="none" class="djs-outline"></rect></g></g><g class="djs-group"><g data-element-id="SequenceFlow_1ho7hi3_label" class="djs-element djs-shape" transform="matrix(1,0,0,1,3848,-197)" style="display: none;"><g class="djs-visual"><text class=" djs-label" transform="matrix(1,0,0,1,0,0)" style="font-family: Arial, sans-serif; font-size: 11px;"><tspan x="45" y="0"></tspan></text></g><rect x="0" y="0" width="0" height="0" fill="none" stroke="#ffffff" style="stroke-opacity: 0; stroke-width: 15;" class="djs-hit"></rect><rect x="-6" y="-6" width="12" height="12" fill="none" class="djs-outline"></rect></g></g><g class="djs-group"><g data-element-id="SequenceFlow_0tqy4gx" class="djs-element djs-connection" style="display: block;"><g class="djs-visual"><path d="m  4086,-402L4224,-402 " fill="none" stroke="#000000" style="stroke-width: 2; stroke-linejoin: round; marker-end: url(&quot;#markerSivj6s1sb9&quot;);"></path></g><polyline points="4086,-402 4224,-402 " fill="none" stroke="#ffffff" style="stroke-opacity: 0; stroke-width: 15;" class="djs-hit"></polyline><rect x="4080" y="-408" width="150" height="12" fill="none" class="djs-outline"></rect></g></g><g class="djs-group"><g data-element-id="SequenceFlow_0tqy4gx_label" class="djs-element djs-shape" transform="matrix(1,0,0,1,4155,-417)" style="display: none;"><g class="djs-visual"><text class=" djs-label" transform="matrix(1,0,0,1,0,0)" style="font-family: Arial, sans-serif; font-size: 11px;"><tspan x="45" y="0"></tspan></text></g><rect x="0" y="0" width="0" height="0" fill="none" stroke="#ffffff" style="stroke-opacity: 0; stroke-width: 15;" class="djs-hit"></rect><rect x="-6" y="-6" width="12" height="12" fill="none" class="djs-outline"></rect></g></g><g class="djs-group"><g data-element-id="SequenceFlow_062t3gx" class="djs-element djs-connection" style="display: block;"><g class="djs-visual"><path d="m  3905,-207L3905,-402 L3986,-402 " fill="none" stroke="#000000" style="stroke-width: 2; stroke-linejoin: round; marker-end: url(&quot;#markerSivj6s1sb9&quot;);"></path></g><polyline points="3905,-207 3905,-402 3986,-402 " fill="none" stroke="#ffffff" style="stroke-opacity: 0; stroke-width: 15;" class="djs-hit"></polyline><rect x="3899" y="-408" width="93" height="207" fill="none" class="djs-outline"></rect></g></g><g class="djs-group"><g data-element-id="SequenceFlow_062t3gx_label" class="djs-element djs-shape" transform="matrix(1,0,0,1,3900,-297)" style="display: block;"><g class="djs-visual"><text class=" djs-label" transform="matrix(1,0,0,1,-25,0)" style="font-family: Arial, sans-serif; font-size: 11px;"><tspan x="25" y="12">old user</tspan></text></g><rect x="0" y="0" width="40" height="12" fill="none" stroke="#ffffff" style="stroke-opacity: 0; stroke-width: 15;" class="djs-hit"></rect><rect x="-6" y="-6" width="52" height="24" fill="none" class="djs-outline"></rect></g></g><g class="djs-group"><g data-element-id="SequenceFlow_0ipv4hv" class="djs-element djs-connection" style="display: block;"><g class="djs-visual"><path d="m  3905,-157L3905,-51 L3986,-51 " fill="none" stroke="#000000" style="stroke-width: 2; stroke-linejoin: round; marker-end: url(&quot;#markerSivj6s1sb9&quot;);"></path></g><polyline points="3905,-157 3905,-51 3986,-51 " fill="none" stroke="#ffffff" style="stroke-opacity: 0; stroke-width: 15;" class="djs-hit"></polyline><rect x="3899" y="-163" width="93" height="118" fill="none" class="djs-outline"></rect></g></g><g class="djs-group"><g data-element-id="SequenceFlow_0ipv4hv_label" class="djs-element djs-shape" transform="matrix(1,0,0,1,3897,-114)" style="display: block;"><g class="djs-visual"><text class=" djs-label" transform="matrix(1,0,0,1,-22,0)" style="font-family: Arial, sans-serif; font-size: 11px;"><tspan x="22" y="12">new user</tspan></text></g><rect x="0" y="0" width="46" height="12" fill="none" stroke="#ffffff" style="stroke-opacity: 0; stroke-width: 15;" class="djs-hit"></rect><rect x="-6" y="-6" width="58" height="24" fill="none" class="djs-outline"></rect></g></g><g class="djs-group"><g data-element-id="SequenceFlow_10s7xoe" class="djs-element djs-connection" style="display: block;"><g class="djs-visual"><path d="m  4430,-471L4543,-471 " fill="none" stroke="#000000" style="stroke-width: 2; stroke-linejoin: round; marker-end: url(&quot;#markerSivj6s1sb9&quot;);"></path></g><polyline points="4430,-471 4543,-471 " fill="none" stroke="#ffffff" style="stroke-opacity: 0; stroke-width: 15;" class="djs-hit"></polyline><rect x="4424" y="-477" width="125" height="12" fill="none" class="djs-outline"></rect></g></g><g class="djs-group"><g data-element-id="SequenceFlow_10s7xoe_label" class="djs-element djs-shape" transform="matrix(1,0,0,1,4487,-486)" style="display: none;"><g class="djs-visual"><text class=" djs-label" transform="matrix(1,0,0,1,0,0)" style="font-family: Arial, sans-serif; font-size: 11px;"><tspan x="45" y="0"></tspan></text></g><rect x="0" y="0" width="0" height="0" fill="none" stroke="#ffffff" style="stroke-opacity: 0; stroke-width: 15;" class="djs-hit"></rect><rect x="-6" y="-6" width="12" height="12" fill="none" class="djs-outline"></rect></g></g><g class="djs-group"><g data-element-id="SequenceFlow_1ualkg2" class="djs-element djs-connection" style="display: block;"><g class="djs-visual"><path d="m  4101,-242L4101,-368.8808618504436 L4082,-369 " fill="none" stroke="#000000" style="stroke-width: 2; stroke-linejoin: round; marker-end: url(&quot;#markerSivj6s1sb9&quot;);"></path></g><polyline points="4101,-242 4101,-368.8808618504436 4082,-369 " fill="none" stroke="#ffffff" style="stroke-opacity: 0; stroke-width: 15;" class="djs-hit"></polyline><rect x="4076" y="-375" width="31" height="139" fill="none" class="djs-outline"></rect></g></g><g class="djs-group"><g data-element-id="SequenceFlow_1ualkg2_label" class="djs-element djs-shape" transform="matrix(1,0,0,1,4063,-324)" style="display: block;"><g class="djs-visual"><text class=" djs-label" transform="matrix(1,0,0,1,-21,0)" style="font-family: Arial, sans-serif; font-size: 11px;"><tspan x="21" y="12">succesful</tspan></text></g><rect x="0" y="0" width="48" height="12" fill="none" stroke="#ffffff" style="stroke-opacity: 0; stroke-width: 15;" class="djs-hit"></rect><rect x="-6" y="-6" width="60" height="24" fill="none" class="djs-outline"></rect></g></g><g class="djs-group"><g data-element-id="SequenceFlow_0cw2rt7" class="djs-element djs-connection" style="display: block;"><g class="djs-visual"><path d="m  4199,-217L4126,-217 " fill="none" stroke="#000000" style="stroke-width: 2; stroke-linejoin: round; marker-end: url(&quot;#markerSivj6s1sb9&quot;);"></path></g><polyline points="4199,-217 4126,-217 " fill="none" stroke="#ffffff" style="stroke-opacity: 0; stroke-width: 15;" class="djs-hit"></polyline><rect x="4120" y="-223" width="85" height="12" fill="none" class="djs-outline"></rect></g></g><g class="djs-group"><g data-element-id="SequenceFlow_0cw2rt7_label" class="djs-element djs-shape" transform="matrix(1,0,0,1,4163,-232)" style="display: none;"><g class="djs-visual"><text class=" djs-label" transform="matrix(1,0,0,1,0,0)" style="font-family: Arial, sans-serif; font-size: 11px;"><tspan x="45" y="0"></tspan></text></g><rect x="0" y="0" width="0" height="0" fill="none" stroke="#ffffff" style="stroke-opacity: 0; stroke-width: 15;" class="djs-hit"></rect><rect x="-6" y="-6" width="12" height="12" fill="none" class="djs-outline"></rect></g></g><g class="djs-group"><g data-element-id="SequenceFlow_0k6uofc" class="djs-element djs-connection" style="display: block;"><g class="djs-visual"><path d="m  4101,-192L4101,-51 L4086,-51 " fill="none" stroke="#000000" style="stroke-width: 2; stroke-linejoin: round; marker-end: url(&quot;#markerSivj6s1sb9&quot;);"></path></g><polyline points="4101,-192 4101,-51 4086,-51 " fill="none" stroke="#ffffff" style="stroke-opacity: 0; stroke-width: 15;" class="djs-hit"></polyline><rect x="4080" y="-198" width="27" height="153" fill="none" class="djs-outline"></rect></g></g><g class="djs-group"><g data-element-id="SequenceFlow_0k6uofc_label" class="djs-element djs-shape" transform="matrix(1,0,0,1,4103,-121)" style="display: block;"><g class="djs-visual"><text class=" djs-label" transform="matrix(1,0,0,1,-31,0)" style="font-family: Arial, sans-serif; font-size: 11px;"><tspan x="32" y="12">failed</tspan></text></g><rect x="0" y="0" width="26" height="12" fill="none" stroke="#ffffff" style="stroke-opacity: 0; stroke-width: 15;" class="djs-hit"></rect><rect x="-6" y="-6" width="38" height="24" fill="none" class="djs-outline"></rect></g></g><g class="djs-group"><g data-element-id="SequenceFlow_191flnw" class="djs-element djs-connection" style="display: block;"><g class="djs-visual"><path d="m  4036,-11L4036,23 L4166,23 " fill="none" stroke="#000000" style="stroke-width: 2; stroke-linejoin: round; marker-end: url(&quot;#markerSivj6s1sb9&quot;);"></path></g><polyline points="4036,-11 4036,23 4166,23 " fill="none" stroke="#ffffff" style="stroke-opacity: 0; stroke-width: 15;" class="djs-hit"></polyline><rect x="4030" y="-17" width="142" height="46" fill="none" class="djs-outline"></rect></g></g><g class="djs-group"><g data-element-id="SequenceFlow_191flnw_label" class="djs-element djs-shape" transform="matrix(1,0,0,1,4051,6)" style="display: none;"><g class="djs-visual"><text class=" djs-label" transform="matrix(1,0,0,1,0,0)" style="font-family: Arial, sans-serif; font-size: 11px;"><tspan x="45" y="0"></tspan></text></g><rect x="0" y="0" width="0" height="0" fill="none" stroke="#ffffff" style="stroke-opacity: 0; stroke-width: 15;" class="djs-hit"></rect><rect x="-6" y="-6" width="12" height="12" fill="none" class="djs-outline"></rect></g></g><g class="djs-group"><g data-element-id="SequenceFlow_0mxrv19" class="djs-element djs-connection" style="display: block;"><g class="djs-visual"><path d="m  4216,23L4380,23 L4380,-431 " fill="none" stroke="#000000" style="stroke-width: 2; stroke-linejoin: round; marker-end: url(&quot;#markerSivj6s1sb9&quot;);"></path></g><polyline points="4216,23 4380,23 4380,-431 " fill="none" stroke="#ffffff" style="stroke-opacity: 0; stroke-width: 15;" class="djs-hit"></polyline><rect x="4210" y="-437" width="176" height="466" fill="none" class="djs-outline"></rect></g></g><g class="djs-group"><g data-element-id="SequenceFlow_0mxrv19_label" class="djs-element djs-shape" transform="matrix(1,0,0,1,4274,8)" style="display: block;"><g class="djs-visual"><text class=" djs-label" transform="matrix(1,0,0,1,-21,0)" style="font-family: Arial, sans-serif; font-size: 11px;"><tspan x="21" y="12">succesful</tspan></text></g><rect x="0" y="0" width="48" height="12" fill="none" stroke="#ffffff" style="stroke-opacity: 0; stroke-width: 15;" class="djs-hit"></rect><rect x="-6" y="-6" width="60" height="24" fill="none" class="djs-outline"></rect></g></g><g class="djs-group"><g data-element-id="SequenceFlow_01z0myk" class="djs-element djs-connection" style="display: block;"><g class="djs-visual"><path d="m  4191,-2L4191,-51 L4086,-51 " fill="none" stroke="#000000" style="stroke-width: 2; stroke-linejoin: round; marker-end: url(&quot;#markerSivj6s1sb9&quot;);"></path></g><polyline points="4191,-2 4191,-51 4086,-51 " fill="none" stroke="#ffffff" style="stroke-opacity: 0; stroke-width: 15;" class="djs-hit"></polyline><rect x="4080" y="-57" width="117" height="61" fill="none" class="djs-outline"></rect></g></g><g class="djs-group"><g data-element-id="SequenceFlow_01z0myk_label" class="djs-element djs-shape" transform="matrix(1,0,0,1,4193,-36)" style="display: block;"><g class="djs-visual"><text class=" djs-label" transform="matrix(1,0,0,1,-31,0)" style="font-family: Arial, sans-serif; font-size: 11px;"><tspan x="32" y="12">failed</tspan></text></g><rect x="0" y="0" width="26" height="12" fill="none" stroke="#ffffff" class="djs-hit" style="stroke-opacity: 0; stroke-width: 15;"></rect><rect x="-6" y="-6" width="38" height="24" fill="none" class="djs-outline"></rect></g></g></g></g></svg>